<svg xmlns="http://www.w3.org/2000/svg" version="1.1" xmlns:xlink="http://www.w3.org/1999/xlink" width="2000" height="300" viewBox="0 0 2000 300"><svg xml:space="preserve" width="2000" height="300" data-version="2" data-id="lg_yN6GnQ1GF0PgVAtxoS" viewBox="0 0 569 300" x="0" y="0"><rect width="100%" height="100%" fill="transparent"></rect><path fill="#fbfbfb" d="M132.396 2.978C64.627 7.77 10.487 61.91 5.696 129.678c-.375 5.29 3.8 9.791 9.101 9.791h118.268a9.124 9.124 0 0 0 9.124-9.124V12.08c0-5.301-4.502-9.474-9.79-9.102ZM300.1 130.479C295.308 62.71 241.168 8.57 173.4 3.779c-5.29-.375-9.791 3.8-9.791 9.101v118.268a9.124 9.124 0 0 0 9.124 9.124h118.265c5.301 0 9.474-4.502 9.102-9.79Zm-12.91 27.743c-67.769 4.792-121.909 58.932-126.7 126.7-.375 5.29 3.8 9.791 9.101 9.791h118.268a9.124 9.124 0 0 0 9.124-9.124V167.324c0-5.301-4.502-9.474-9.79-9.102ZM5.694 170.32c4.792 67.769 58.932 121.909 126.7 126.7 5.29.375 9.791-3.8 9.791-9.101V169.651a9.124 9.124 0 0 0-9.124-9.124H14.796c-5.301 0-9.474 4.502-9.102 9.79Zm344.336 55.276h-8.54v-49.05h-14.48v-7.55h37.65v7.55h-14.63zm48.98.77q-5.78 0-10.9-2t-9.05-5.82q-3.92-3.81-6.2-9.2-2.27-5.39-2.27-12.16 0-6.86 2.27-12.25 2.28-5.39 6.24-9.16 3.97-3.77 9.09-5.74 5.12-1.96 10.82-1.96 5.69 0 10.81 1.96 5.12 1.97 9.09 5.74 3.97 3.77 6.24 9.16 2.27 5.39 2.27 12.25 0 6.77-2.27 12.16-2.27 5.39-6.2 9.2-3.93 3.82-9.05 5.82-5.12 2-10.89 2m0-7.78q5.23 0 9.62-2.46 4.39-2.47 7.01-7.2 2.62-4.74 2.62-11.67 0-7-2.62-11.74-2.62-4.73-6.97-7.16-4.35-2.43-9.66-2.43-5.32 0-9.67 2.43t-6.97 7.16q-2.61 4.74-2.61 11.74 0 6.93 2.69 11.67 2.7 4.73 7.08 7.2 4.39 2.46 9.48 2.46m70.99 7.01h-14.09v-56.6h13.63q7.62 0 12.97 1.7 5.35 1.69 8.82 4.5 3.46 2.81 5.43 6.39 1.96 3.58 2.73 7.4.77 3.81.77 7.35 0 5.31-1.5 10.51t-4.97 9.43q-3.46 4.24-9.28 6.78-5.81 2.54-14.51 2.54m-5.47-49.05v41.43h6.39q5.7 0 9.59-1.77 3.89-1.78 6.24-4.82t3.38-6.85q1.04-3.81 1.04-7.82 0-5.46-1.92-10.04-1.93-4.59-6.35-7.36-4.43-2.77-11.98-2.77zm70.38 49.82q-5.77 0-10.9-2-5.12-2-9.04-5.82-3.93-3.81-6.2-9.2-2.27-5.39-2.27-12.16 0-6.86 2.27-12.25t6.24-9.16q3.96-3.77 9.08-5.74 5.12-1.96 10.82-1.96t10.82 1.96q5.12 1.97 9.08 5.74 3.97 3.77 6.24 9.16 2.27 5.39 2.27 12.25 0 6.77-2.27 12.16-2.27 5.39-6.2 9.2-3.92 3.82-9.04 5.82-5.12 2-10.9 2m0-7.78q5.24 0 9.63-2.46 4.38-2.47 7-7.2 2.62-4.74 2.62-11.67 0-7-2.62-11.74-2.62-4.73-6.97-7.16-4.35-2.43-9.66-2.43-5.31 0-9.66 2.43-4.35 2.43-6.97 7.16-2.62 4.74-2.62 11.74 0 6.93 2.7 11.67 2.69 4.73 7.08 7.2 4.39 2.46 9.47 2.46m-179.26 76.62h-24.94v-56.6h8.7v48.9h16.24zm17.95 0h-8.63v-56.6h8.63zm26.02.77q-3.23 0-6.39-.81-3.16-.81-5.62-2-2.46-1.2-3.7-2.43l4.08-7.31q.85.69 2.66 1.81 1.81 1.11 4.2 1.96 2.38.85 4.77.85 3.93 0 6.58-1.85 2.66-1.85 2.66-5.39 0-2.93-1.54-4.85-1.54-1.93-4.04-3.39-2.5-1.46-5.39-2.81-2.89-1.35-5.51-3.04-3-2-5.23-5.32-2.24-3.31-2.24-8.54 0-5.16 2.35-8.47 2.35-3.31 6.24-4.97 3.89-1.65 8.51-1.65 3.69 0 6.31.77 2.62.77 4.39 1.84 1.77 1.08 2.77 1.93l-4.08 7.01q-1.31-1.39-3.92-2.58-2.62-1.2-5.86-1.2-3.77 0-6 1.74-2.24 1.73-2.24 5.12 0 3 2.01 5.12 2 2.11 5.12 3.85 3.12 1.73 6.43 3.5 3.31 1.77 5.85 4.16 2.08 1.85 3.54 4.62t1.46 6.23q0 5.24-2.42 8.86-2.43 3.62-6.51 5.43-4.08 1.81-9.24 1.81m46.74-.77h-8.55v-49.05h-14.47v-7.55h37.65v7.55h-14.63z"></path></svg></svg>